<svg xmlns="http://www.w3.org/2000/svg" xmlns:xlink="http://www.w3.org/1999/xlink" id="Capa_1" x="0" y="0" enable-background="new 0 0 42 42" version="1.1" viewBox="0 0 42 42" xml:space="preserve"><g><circle cx="21" cy="21" r="21" fill="#FBD971"/><path fill="#FFF" d="M32,27H10c0,6.075,4.925,11,11,11S32,33.075,32,27z"/><circle cx="12" cy="15" r="6" fill="#FFF"/><circle cx="30" cy="15" r="6" fill="#FFF"/><path fill="#ECF0F1" d="M30,31h-2v-4c0-0.552-0.447-1-1-1s-1,0.448-1,1v4h-2v-4c0-0.552-0.447-1-1-1s-1,0.448-1,1v4h-2v-4 c0-0.552-0.447-1-1-1s-1,0.448-1,1v4h-2v-4c0-0.552-0.447-1-1-1s-1,0.448-1,1v4h-2c-0.553,0-1,0.448-1,1s0.447,1,1,1h2v3 c0,0.552,0.447,1,1,1s1-0.448,1-1v-3h2v4c0,0.552,0.447,1,1,1s1-0.448,1-1v-4h2v4c0,0.552,0.447,1,1,1s1-0.448,1-1v-4h2v3 c0,0.552,0.447,1,1,1s1-0.448,1-1v-3h2c0.553,0,1-0.448,1-1S30.553,31,30,31z"/><circle cx="10" cy="13.5" r="3.5" fill="#AF8066"/><circle cx="32" cy="13.5" r="3.5" fill="#AF8066"/><path fill="#F0C419" d="M21,39c-6.617,0-12-5.383-12-12c0-0.552,0.447-1,1-1h22c0.553,0,1,0.448,1,1 C33,33.617,27.617,39,21,39z M11.05,28c0.503,5.046,4.773,9,9.95,9s9.447-3.954,9.95-9H11.05z"/></g></svg>