<svg xmlns="http://www.w3.org/2000/svg" xmlns:xlink="http://www.w3.org/1999/xlink" id="Capa_1" x="0" y="0" enable-background="new 0 0 57 57" version="1.1" viewBox="0 0 57 57" xml:space="preserve"><g><path fill="#6E5847" d="M28.5,0C14.475,0,3,11.475,3,25.5V50c0,2.2,1.8,4,4,4h6.777c4.16,2.021,9.237,3,14.723,3 s10.563-0.979,14.723-3H50c2.2,0,4-1.8,4-4V25.5C54,11.475,42.525,0,28.5,0z"/><path fill="#FDC794" d="M3.869,29.894C3.305,32.001,3,34.215,3,36.5C3,50.583,14.417,57,28.5,57S54,50.583,54,36.5 C54,22.842,42.495,11.661,29,11h-1C14.505,11.661,3,22.842,3,36.5C3,50.583,14.417,57,28.5,57S54,50.583,54,36.5"/><path fill="#802D40" d="M39.223,41.676c0,6.075-4.925,11-11,11s-11-4.925-11-11H39.223z"/><rect width="4" height="6" x="24.223" y="41.676" fill="#ECF0F0"/><rect width="4" height="4" x="28.223" y="41.676" fill="#ECF0F0"/><ellipse cx="19.223" cy="26.176" fill="#FFF" rx="6" ry="7.5"/><ellipse cx="19.223" cy="26.176" fill="#6E5847" rx="3" ry="4.5"/><ellipse cx="37.223" cy="26.176" fill="#FFF" rx="6" ry="7.5"/><ellipse cx="37.223" cy="26.176" fill="#6E5847" rx="3" ry="4.5"/><circle cx="11.616" cy="35.571" r="1" fill="#6E5847"/><circle cx="16.018" cy="37.942" r="1" fill="#6E5847"/><circle cx="11.223" cy="39.675" r="1" fill="#6E5847"/><circle cx="43.829" cy="35.571" r="1" fill="#6E5847"/><circle cx="39.427" cy="37.942" r="1" fill="#6E5847"/><circle cx="44.222" cy="39.675" r="1" fill="#6E5847"/></g></svg>