<svg xmlns="http://www.w3.org/2000/svg" xmlns:xlink="http://www.w3.org/1999/xlink" id="Capa_1" x="0" y="0" enable-background="new 0 0 42 42" version="1.1" viewBox="0 0 42 42" xml:space="preserve"><g><circle cx="21" cy="21" r="21" fill="#FBD971"/><path fill="#C03A2B" d="M32,26c0,6.075-4.925,11-11,11s-11-4.925-11-11H32z"/><rect width="4" height="6" x="17" y="26" fill="#ECF0F1"/><rect width="4" height="4" x="21" y="26" fill="#ECF0F1"/><circle cx="30" cy="14" r="6" fill="#FFF"/><circle cx="30" cy="14" r="3" fill="#AF8066"/><path fill="#38454F" d="M31.15,2.62c-0.664-0.367-1.348-0.703-2.053-0.998L18.715,9.323 c-0.098-0.194-0.206-0.385-0.325-0.571c-1.979-3.103-4.307-1.205-7.411,0.774c-3.103,1.979-5.806,3.29-3.827,6.393 c0.181,0.284,0.386,0.543,0.6,0.79l-7.665,6.023c0.064,0.779,0.162,1.548,0.309,2.301l8.918-7.007 c2.102,1.275,4.828,1.34,7.04-0.071c2.291-1.461,3.383-4.09,3.003-6.614L31.15,2.62z"/></g></svg>