<?xml version="1.0" encoding="iso-8859-1"?>
<!-- Generator: Adobe Illustrator 19.0.0, SVG Export Plug-In . SVG Version: 6.00 Build 0)  -->
<svg version="1.1" id="Layer_1" xmlns="http://www.w3.org/2000/svg" xmlns:xlink="http://www.w3.org/1999/xlink" x="0px" y="0px"
	 viewBox="0 0 464 464" style="enable-background:new 0 0 464 464;" xml:space="preserve">
<g>
	<g>
		<g>
			<rect x="80" y="224" style="fill:#8CA5B4;" width="304" height="32"/>
		</g>
	</g>
	<g>
		<g>
			<rect x="256" y="376" style="fill:#A4BFCE;" width="16" height="64"/>
		</g>
	</g>
	<g>
		<g>
			<path style="fill:#8CA5B4;" d="M320,464h-64c-4.418,0-8-3.582-8-8v-16c0-4.418,3.582-8,8-8h18.807
				c3.439,0,6.856,0.555,10.119,1.642l37.603,12.534c3.267,1.089,5.47,4.146,5.47,7.589V456C328,460.418,324.418,464,320,464z"/>
		</g>
	</g>
	<g>
		<g>
			<rect x="192" y="376" style="fill:#A4BFCE;" width="16" height="64"/>
		</g>
	</g>
	<g>
		<g>
			<circle style="fill:#8CA5B4;" cx="200" cy="352" r="32"/>
		</g>
	</g>
	<g>
		<g>
			<circle style="fill:#8CA5B4;" cx="264" cy="352" r="32"/>
		</g>
	</g>
	<g>
		<g>
			<rect x="80" y="256" style="fill:#A4BFCE;" width="16" height="112"/>
		</g>
	</g>
	<g>
		<g>
			<circle style="fill:#B7D3E2;" cx="88" cy="240" r="24"/>
		</g>
	</g>
	<g>
		<g>
			<circle style="fill:#A4BFCE;" cx="88" cy="240" r="8"/>
		</g>
	</g>
	<g>
		<g>
			<polygon style="fill:#8CA5B4;" points="96,320 80,328 80,312 96,304 			"/>
		</g>
	</g>
	<g>
		<g>
			<polygon style="fill:#8CA5B4;" points="96,288 80,296 80,280 96,272 			"/>
		</g>
	</g>
	<g>
		<g>
			<path style="fill:#8CA5B4;" d="M104,392c-4.422,0-8-3.578-8-8v-24c0-4.414-3.586-8-8-8s-8,3.586-8,8v24c0,4.422-3.578,8-8,8
				s-8-3.578-8-8v-24c0-13.234,10.766-24,24-24s24,10.766,24,24v24C112,388.422,108.422,392,104,392z"/>
		</g>
	</g>
	<g>
		<g>
			<rect x="368" y="256" style="fill:#A4BFCE;" width="16" height="112"/>
		</g>
	</g>
	<g>
		<g>
			<circle style="fill:#B7D3E2;" cx="376" cy="240" r="24"/>
		</g>
	</g>
	<g>
		<g>
			<circle style="fill:#A4BFCE;" cx="376" cy="240" r="8"/>
		</g>
	</g>
	<g>
		<g>
			<polygon style="fill:#8CA5B4;" points="368,320 384,328 384,312 368,304 			"/>
		</g>
	</g>
	<g>
		<g>
			<polygon style="fill:#8CA5B4;" points="368,288 384,296 384,280 368,272 			"/>
		</g>
	</g>
	<g>
		<g>
			<path style="fill:#8CA5B4;" d="M392,392c-4.422,0-8-3.578-8-8v-24c0-4.414-3.586-8-8-8s-8,3.586-8,8v24c0,4.422-3.578,8-8,8
				s-8-3.578-8-8v-24c0-13.234,10.766-24,24-24s24,10.766,24,24v24C400,388.422,396.422,392,392,392z"/>
		</g>
	</g>
	<g>
		<g>
			<path style="fill:#A4BFCE;" d="M296,368H168c-13.255,0-24-10.745-24-24V240h176v104C320,357.255,309.255,368,296,368z"/>
		</g>
	</g>
	<g>
		<g>
			<g>
				<path style="fill:#CDE6F5;" d="M320,240H144c-22.091,0-40-17.909-40-40V88c0-22.091,17.909-40,40-40h176
					c22.091,0,40,17.909,40,40v112C360,222.091,342.091,240,320,240z"/>
			</g>
		</g>
		<g>
			<g>
				<path style="fill:#B7D3E2;" d="M232,200c-47.606,0-91.711-11.172-128-30.164V200c0,22.091,17.909,40,40,40h176
					c22.091,0,40-17.909,40-40v-30.164C323.711,188.828,279.606,200,232,200z"/>
			</g>
		</g>
		<g>
			<g>
				<path style="fill:#7891A0;" d="M180,160L180,160c-6.627,0-12-5.373-12-12v-16c0-6.627,5.373-12,12-12l0,0
					c6.627,0,12,5.373,12,12v16C192,154.627,186.627,160,180,160z"/>
			</g>
		</g>
		<g>
			<g>
				<path style="fill:#7891A0;" d="M284,160L284,160c-6.627,0-12-5.373-12-12v-16c0-6.627,5.373-12,12-12l0,0
					c6.627,0,12,5.373,12,12v16C296,154.627,290.627,160,284,160z"/>
			</g>
		</g>
		<g>
			<g>
				<path style="fill:#A4BFCE;" d="M232,200c-47.606,0-91.711-11.172-128-30.164V184c36.289,18.992,80.394,30.164,128,30.164
					S323.711,202.992,360,184v-14.164C323.711,188.828,279.606,200,232,200z"/>
			</g>
		</g>
		<g>
			<g>
				<path style="fill:#A4BFCE;" d="M184,64L184,64c-4.418,0-8-3.582-8-8V24c0-4.418,3.582-8,8-8l0,0c4.418,0,8,3.582,8,8v32
					C192,60.418,188.418,64,184,64z"/>
			</g>
		</g>
		<g>
			<g>
				<circle style="fill:#B7D3E2;" cx="184" cy="16" r="16"/>
			</g>
		</g>
		<g>
			<g>
				<path style="fill:#A4BFCE;" d="M176,16c0-7.447,5.111-13.65,12-15.434C186.714,0.233,185.39,0,184,0c-8.836,0-16,7.163-16,16
					c0,8.836,7.164,16,16,16c1.39,0,2.714-0.233,4-0.566C181.111,29.65,176,23.447,176,16z"/>
			</g>
		</g>
		<g>
			<g>
				<path style="fill:#A4BFCE;" d="M280,64L280,64c-4.418,0-8-3.582-8-8V24c0-4.418,3.582-8,8-8l0,0c4.418,0,8,3.582,8,8v32
					C288,60.418,284.418,64,280,64z"/>
			</g>
		</g>
		<g>
			<g>
				<circle style="fill:#B7D3E2;" cx="280" cy="16" r="16"/>
			</g>
		</g>
		<g>
			<g>
				<path style="fill:#A4BFCE;" d="M272,16c0-7.447,5.111-13.65,12-15.434C282.714,0.233,281.39,0,280,0c-8.836,0-16,7.163-16,16
					c0,8.836,7.164,16,16,16c1.39,0,2.714-0.233,4-0.566C277.111,29.65,272,23.447,272,16z"/>
			</g>
		</g>
	</g>
	<g>
		<g>
			<circle style="fill:#8CA5B4;" cx="232" cy="304" r="40"/>
		</g>
	</g>
	<g>
		<g>
			<circle style="fill:#FFC855;" cx="232" cy="304" r="24"/>
		</g>
	</g>
	<g>
		<g>
			<path style="fill:#FFB44B;" d="M224,304c0-10.435,6.7-19.224,16-22.53c-2.514-0.894-5.18-1.47-8-1.47c-13.255,0-24,10.745-24,24
				s10.745,24,24,24c2.82,0,5.486-0.576,8-1.47C230.7,323.224,224,314.435,224,304z"/>
		</g>
	</g>
	<g>
		<g>
			<circle style="fill:#FFF0BE;" cx="240" cy="296" r="8"/>
		</g>
	</g>
	<g>
		<g>
			<path style="fill:#8CA5B4;" d="M256,256h-48c-8.837,0-16-7.163-16-16l0,0h80l0,0C272,248.837,264.837,256,256,256z"/>
		</g>
	</g>
	<g>
		<g>
			<path style="fill:#8CA5B4;" d="M296,320L296,320c-4.418,0-8-3.582-8-8v-16c0-4.418,3.582-8,8-8l0,0c4.418,0,8,3.582,8,8v16
				C304,316.418,300.418,320,296,320z"/>
		</g>
	</g>
	<g>
		<g>
			<path style="fill:#00D2BE;" d="M296,304L296,304c-4.418,0-8-3.582-8-8l0,0c0-4.418,3.582-8,8-8l0,0c4.418,0,8,3.582,8,8l0,0
				C304,300.418,300.418,304,296,304z"/>
		</g>
	</g>
	<g>
		<g>
			<path style="fill:#8CA5B4;" d="M168,320L168,320c-4.418,0-8-3.582-8-8v-16c0-4.418,3.582-8,8-8l0,0c4.418,0,8,3.582,8,8v16
				C176,316.418,172.418,320,168,320z"/>
		</g>
	</g>
	<g>
		<g>
			<path style="fill:#E15050;" d="M168,304L168,304c-4.418,0-8-3.582-8-8l0,0c0-4.418,3.582-8,8-8l0,0c4.418,0,8,3.582,8,8l0,0
				C176,300.418,172.418,304,168,304z"/>
		</g>
	</g>
	<g>
		<g>
			<path style="fill:#8CA5B4;" d="M144,464h64c4.418,0,8-3.582,8-8v-16c0-4.418-3.582-8-8-8h-18.807
				c-3.439,0-6.856,0.555-10.119,1.642l-37.603,12.534c-3.267,1.089-5.47,4.146-5.47,7.589V456C136,460.418,139.582,464,144,464z"/>
		</g>
	</g>
</g>
<g>
</g>
<g>
</g>
<g>
</g>
<g>
</g>
<g>
</g>
<g>
</g>
<g>
</g>
<g>
</g>
<g>
</g>
<g>
</g>
<g>
</g>
<g>
</g>
<g>
</g>
<g>
</g>
<g>
</g>
</svg>
