<svg xmlns="http://www.w3.org/2000/svg" xmlns:xlink="http://www.w3.org/1999/xlink" id="Capa_1" x="0" y="0" enable-background="new 0 0 57 57" version="1.1" viewBox="0 0 57 57" xml:space="preserve"><g><path fill="#6E5847" d="M28.5,0C14.475,0,3,11.475,3,25.5V50c0,2.2,1.8,4,4,4h6.777c4.16,2.021,9.237,3,14.723,3 s10.563-0.979,14.723-3H50c2.2,0,4-1.8,4-4V25.5C54,11.475,42.525,0,28.5,0z"/><path fill="#FDC794" d="M3.869,29.894C3.305,32.001,3,34.215,3,36.5C3,50.583,14.417,57,28.5,57S54,50.583,54,36.5 C54,22.842,42.495,11.661,29,11h-1C14.505,11.661,3,22.842,3,36.5C3,50.583,14.417,57,28.5,57S54,50.583,54,36.5"/><circle cx="19.95" cy="30.676" r="6" fill="#FFF"/><circle cx="33.95" cy="30.676" r="8" fill="#FFF"/><circle cx="19.95" cy="30.676" r="2" fill="#6E5847"/><circle cx="33.95" cy="30.676" r="3" fill="#6E5847"/><path fill="#F9A671" d="M15.831,47.663c-1.322,0-2.622-0.454-3.538-1.37c-0.391-0.391-0.391-1.023,0-1.414 s1.023-0.391,1.414,0c1.134,1.134,3.363,1.05,4.586-0.173c1.939-1.939,5.475-1.939,7.414,0c0.56,0.559,1.395,0.88,2.293,0.88 s1.733-0.321,2.293-0.88c1.939-1.939,5.475-1.939,7.414,0c1.18,1.178,3.406,1.178,4.586,0c0.391-0.391,1.023-0.391,1.414,0 s0.391,1.023,0,1.414c-0.932,0.932-2.282,1.466-3.707,1.466s-2.775-0.534-3.707-1.466c-1.18-1.178-3.406-1.178-4.586,0 c-0.932,0.932-2.282,1.466-3.707,1.466s-2.775-0.534-3.707-1.466c-1.18-1.178-3.406-1.178-4.586,0 C18.682,47.146,17.243,47.663,15.831,47.663z"/></g></svg>