<svg xmlns="http://www.w3.org/2000/svg" xmlns:xlink="http://www.w3.org/1999/xlink" id="Capa_1" x="0" y="0" enable-background="new 0 0 42 42" version="1.1" viewBox="0 0 42 42" xml:space="preserve"><g><circle cx="21" cy="21" r="21" fill="#FBD971"/><path fill="#C03A2B" d="M21,24c-6.075,0-11,4.925-11,11h22C32,28.925,27.075,24,21,24z"/><path fill="#F29C1F" d="M16,17c-0.552,0-1-0.448-1-1c0-1.654-1.346-3-3-3s-3,1.346-3,3c0,0.552-0.448,1-1,1s-1-0.448-1-1 c0-2.757,2.243-5,5-5s5,2.243,5,5C17,16.552,16.552,17,16,17z"/><path fill="#F29C1F" d="M34,17c-0.552,0-1-0.448-1-1c0-1.654-1.346-3-3-3s-3,1.346-3,3c0,0.552-0.448,1-1,1s-1-0.448-1-1 c0-2.757,2.243-5,5-5s5,2.243,5,5C35,16.552,34.552,17,34,17z"/><path fill="#E64C3C" d="M10,35c0-2.761,4.925-5,11-5s11,2.239,11,5"/></g></svg>