<svg xmlns="http://www.w3.org/2000/svg" xmlns:xlink="http://www.w3.org/1999/xlink" id="Capa_1" x="0" y="0" enable-background="new 0 0 42 42" version="1.1" viewBox="0 0 42 42" xml:space="preserve"><g><circle cx="21" cy="21" r="21" fill="#FBD971"/><circle cx="12" cy="15" r="6" fill="#FFF"/><circle cx="30" cy="15" r="6" fill="#FFF"/><path fill="#F0C419" d="M13,35c-0.129,0-0.259-0.025-0.385-0.078c-0.51-0.212-0.751-0.798-0.538-1.308 c3-7.196,11.843-10.647,19.308-7.538c0.51,0.212,0.751,0.798,0.538,1.308c-0.213,0.51-0.797,0.752-1.308,0.538 c-6.466-2.693-14.109,0.265-16.692,6.462C13.763,34.769,13.392,35,13,35z"/><circle cx="12" cy="15" r="3" fill="#AF8066"/><circle cx="30" cy="15" r="3" fill="#AF8066"/></g></svg>