<?xml version="1.0" encoding="iso-8859-1"?>
<!-- Generator: Adobe Illustrator 19.0.0, SVG Export Plug-In . SVG Version: 6.00 Build 0)  -->
<svg version="1.1" id="Layer_1" xmlns="http://www.w3.org/2000/svg" xmlns:xlink="http://www.w3.org/1999/xlink" x="0px" y="0px"
	 viewBox="0 0 512 512" style="enable-background:new 0 0 512 512;" xml:space="preserve">
<path style="fill:#D8D8DA;" d="M126.39,512c-45.552,0-82.479-36.927-82.479-82.479V264.562C43.91,135.126,134.66,26.902,256,0
	c121.339,26.902,212.09,135.127,212.09,264.562v164.959c0,45.552-36.927,82.479-82.479,82.479H126.39z"/>
<path style="fill:#C6C5CA;" d="M256,0L256,0l-0.001,512H385.61c45.552,0,82.479-36.927,82.479-82.479V264.562
	C468.09,135.127,377.339,26.902,256,0z"/>
<path style="fill:#58575D;" d="M132.281,164.408h-0.004c-12.992,0-23.562-10.571-23.562-23.566
	c0.005-12.996,10.576-23.566,23.566-23.566c12.994,0,23.566,10.571,23.566,23.566S145.274,164.408,132.281,164.408z"/>
<path style="fill:#454449;" d="M379.719,164.408h-0.004c-12.992,0-23.562-10.571-23.562-23.566
	c0.005-12.996,10.576-23.566,23.566-23.566c12.994,0,23.566,10.571,23.566,23.566S392.712,164.408,379.719,164.408z"/>
<path style="fill:#58575D;" d="M250.111,99.606h-35.348c0-9.009-2.849-17.561-8.237-24.734l28.262-21.233
	C244.811,66.985,250.111,82.879,250.111,99.606z"/>
<path style="fill:#454449;" d="M297.242,99.606h-35.348c0-16.727,5.299-32.622,15.323-45.967l28.262,21.233
	C300.09,82.045,297.242,90.598,297.242,99.606z"/>
<circle style="fill:#88888F;" cx="256.004" cy="299.907" r="129.61"/>
<path style="fill:#797781;" d="M256,170.3v259.221c71.581,0,129.61-58.028,129.61-129.61S327.581,170.3,256,170.3z"/>
<path style="fill:#F8F8F9;" d="M256,142.822c-87.711,0-159.067,71.358-159.067,159.067S168.289,460.957,256,460.957
	s159.067-71.358,159.067-159.067S343.71,142.822,256,142.822z M302.417,380.306l-10.731,40.047c-2.094,0.632-4.21,1.209-6.349,1.732
	l-29.337-29.34l-29.339,29.34c-2.139-0.522-4.255-1.1-6.349-1.731l-10.728-40.047l-39.445,10.568
	c-1.744-1.683-3.437-3.415-5.081-5.197l10.546-39.35l-38.54-10.328c-0.755-2.628-1.419-5.293-2.001-7.988l28.103-28.102
	l-27.362-27.362c0.751-3.074,1.617-6.105,2.592-9.086l37.206-9.969l-9.721-36.277c2.414-2.569,4.935-5.031,7.556-7.387l36.144,9.684
	l9.577-35.744c3.508-1.097,7.084-2.031,10.716-2.816l26.122,26.122l26.122-26.122c3.634,0.785,7.211,1.72,10.72,2.817l9.575,35.744
	l36.142-9.685c2.624,2.355,5.146,4.82,7.56,7.389l-9.723,36.274l37.208,9.971c0.977,2.98,1.843,6.012,2.593,9.088l-27.363,27.357
	l28.103,28.103c-0.582,2.696-1.247,5.362-2.002,7.99l-38.537,10.324l10.544,39.35c-1.644,1.783-3.338,3.517-5.083,5.201
	L302.417,380.306z"/>
<path style="fill:#EDEDED;" d="M256,142.822v64.255l26.122-26.122c3.634,0.785,7.211,1.72,10.72,2.817l9.575,35.744l36.142-9.685
	c2.624,2.355,5.146,4.82,7.56,7.389l-9.723,36.274l37.208,9.971c0.977,2.98,1.843,6.012,2.593,9.088l-27.363,27.357l28.103,28.103
	c-0.582,2.696-1.247,5.362-2.002,7.99l-38.537,10.324l10.544,39.35c-1.644,1.783-3.338,3.517-5.083,5.201l-39.44-10.571
	l-10.731,40.047c-2.094,0.632-4.21,1.209-6.349,1.732l-29.337-29.34l-0.001,0.001v68.212c87.71,0,159.067-71.358,159.067-159.067
	S343.71,142.822,256,142.822z"/>
<g>
</g>
<g>
</g>
<g>
</g>
<g>
</g>
<g>
</g>
<g>
</g>
<g>
</g>
<g>
</g>
<g>
</g>
<g>
</g>
<g>
</g>
<g>
</g>
<g>
</g>
<g>
</g>
<g>
</g>
</svg>
