<svg xmlns="http://www.w3.org/2000/svg" xmlns:xlink="http://www.w3.org/1999/xlink" id="Capa_1" x="0" y="0" enable-background="new 0 0 42 42" version="1.1" viewBox="0 0 42 42" xml:space="preserve"><g><circle cx="21" cy="21" r="21" fill="#FBD971"/><circle cx="21" cy="31" r="5" fill="#C03A2B"/><path fill="#F29C1F" d="M7.758,20.242c-0.256,0-0.512-0.098-0.707-0.293c-0.391-0.391-0.391-1.023,0-1.414l8.484-8.484 c0.391-0.391,1.023-0.391,1.414,0s0.391,1.023,0,1.414l-8.484,8.484C8.27,20.145,8.014,20.242,7.758,20.242z"/><path fill="#F29C1F" d="M16.242,20.242c-0.256,0-0.512-0.098-0.707-0.293l-8.484-8.484c-0.391-0.391-0.391-1.023,0-1.414 s1.023-0.391,1.414,0l8.484,8.484c0.391,0.391,0.391,1.023,0,1.414C16.754,20.145,16.498,20.242,16.242,20.242z"/><path fill="#F29C1F" d="M25.515,20.242c-0.256,0-0.512-0.098-0.707-0.293c-0.391-0.391-0.391-1.023,0-1.414l8.485-8.484 c0.391-0.391,1.023-0.391,1.414,0s0.391,1.023,0,1.414l-8.485,8.484C26.026,20.145,25.771,20.242,25.515,20.242z"/><path fill="#F29C1F" d="M34,20.242c-0.256,0-0.512-0.098-0.707-0.293l-8.485-8.484c-0.391-0.391-0.391-1.023,0-1.414 s1.023-0.391,1.414,0l8.485,8.484c0.391,0.391,0.391,1.023,0,1.414C34.512,20.145,34.256,20.242,34,20.242z"/></g></svg>