<svg xmlns="http://www.w3.org/2000/svg" xmlns:xlink="http://www.w3.org/1999/xlink" id="Capa_1" x="0" y="0" enable-background="new 0 0 47 47" version="1.1" viewBox="0 0 47 47" xml:space="preserve"><g><path fill="#FFD581" d="M44,19.662L44,19.662c-1.74-9.843-10.158-17-20.5-17S4.74,9.819,3,19.662l0,0 c-1.663,0.661-3,2.602-3,4.5c0,1.978,1.284,3.639,3.058,4.242C5.21,37.715,13.536,44.662,23.5,44.662 c9.965,0,18.29-6.948,20.442-16.258l0,0.001C45.716,27.801,47,26.14,47,24.162C47,22.264,45.663,20.323,44,19.662z"/><circle cx="17" cy="25.662" r="2" fill="#B27821"/><circle cx="31" cy="25.662" r="2" fill="#B27821"/><path fill="#9D6019" d="M44,19.662l0,0.001C42.26,9.821,33.684,2.338,23.342,2.338S4.74,9.819,3,19.662 c0,0,16.906,4.33,28.242-4.726c0.555-0.444,1.362-0.34,1.758,0.25C35.049,18.238,38.828,21.942,44,19.662z"/><circle cx="24" cy="35.162" r="4.5" fill="#802D40"/></g></svg>