<svg xmlns="http://www.w3.org/2000/svg" xmlns:xlink="http://www.w3.org/1999/xlink" id="Capa_1" x="0" y="0" enable-background="new 0 0 55 55" version="1.1" viewBox="0 0 55 55" xml:space="preserve"><g><path fill="#CBB292" d="M9.5,9c0-4.95,4.05-9,9-9h18c4.95,0,9,4.05,9,9"/><path fill="#FFDB2B" d="M6.496,15.982C6.487,21.46,6.466,47,6.466,47c0,2.2,1.8,4,4,4h34c2.2,0,4-1.8,4-4 c0,0,0.035-25.536,0.034-31.018C48.335,16.006,6.662,16.006,6.496,15.982z"/><path fill="#AF8066" d="M48,16H7c-1.925,0-3.5-1.575-3.5-3.5v0C3.5,10.575,5.075,9,7,9h41c1.925,0,3.5,1.575,3.5,3.5v0 C51.5,14.425,49.925,16,48,16z"/><g><circle cx="17.27" cy="30" r="6.697" fill="#90BAE1"/><path fill="#556080" d="M17.271,37.697c-4.244,0-7.697-3.453-7.697-7.697s3.453-7.697,7.697-7.697s7.697,3.453,7.697,7.697 S21.515,37.697,17.271,37.697z M17.271,24.303c-3.142,0-5.697,2.556-5.697,5.697s2.556,5.697,5.697,5.697 c3.141,0,5.697-2.556,5.697-5.697S20.412,24.303,17.271,24.303z"/></g><g><circle cx="37.876" cy="30" r="6.697" fill="#90BAE1"/><path fill="#556080" d="M37.876,37.697c-4.244,0-7.697-3.453-7.697-7.697s3.453-7.697,7.697-7.697s7.697,3.453,7.697,7.697 S42.121,37.697,37.876,37.697z M37.876,24.303c-3.142,0-5.697,2.556-5.697,5.697s2.556,5.697,5.697,5.697 c3.141,0,5.697-2.556,5.697-5.697S41.018,24.303,37.876,24.303z"/></g><path fill="#556080" d="M32.179,30h-2c0-1.438-1.169-2.606-2.606-2.606S24.967,28.563,24.967,30h-2 c0-2.54,2.066-4.606,4.606-4.606S32.179,27.46,32.179,30z"/><path fill="#F18D46" d="M34.5,47c-0.552,0-1-0.447-1-1c0-1.419-4.928-3-12-3c-0.552,0-1-0.447-1-1s0.448-1,1-1 c2.338,0,14,0.241,14,5C35.5,46.553,35.052,47,34.5,47z"/><path fill="#556080" d="M23.572,23.303c-0.15,0-0.303-0.034-0.446-0.105l-6-3c-0.494-0.247-0.694-0.848-0.447-1.342 c0.247-0.493,0.846-0.693,1.342-0.447l6,3c0.494,0.247,0.694,0.848,0.447,1.342C24.292,23.101,23.939,23.303,23.572,23.303z"/><path fill="#556080" d="M31.574,23.303c-0.367,0-0.72-0.202-0.896-0.553c-0.247-0.494-0.047-1.095,0.447-1.342l6-3 c0.494-0.246,1.095-0.046,1.342,0.447c0.247,0.494,0.047,1.095-0.447,1.342l-6,3C31.877,23.269,31.724,23.303,31.574,23.303z"/><path fill="#FEC722" d="M39.193,55H15.804c-0.721,0-1.305-0.584-1.305-1.305V51h26v2.695C40.498,54.416,39.914,55,39.193,55 z"/></g></svg>