<?xml version="1.0" encoding="utf-8"?>
<!-- Generator: Adobe Illustrator 16.0.0, SVG Export Plug-In . SVG Version: 6.00 Build 0)  -->
<!DOCTYPE svg PUBLIC "-//W3C//DTD SVG 1.1//EN" "http://www.w3.org/Graphics/SVG/1.1/DTD/svg11.dtd">
<svg version="1.1" id="announce_x5F_read" xmlns="http://www.w3.org/2000/svg" xmlns:xlink="http://www.w3.org/1999/xlink" x="0px"
	 y="0px" width="38px" height="38px" viewBox="0 0 38 38" enable-background="new 0 0 38 38" xml:space="preserve">
<path fill-rule="evenodd" clip-rule="evenodd" fill="#DEE0E0" d="M32,36H2c-1.104,0-2-0.896-2-2V3c0-1.104,0.896-2,2-2h20l12,12v21
	C34,35.104,33.104,36,32,36z"/>
<path fill-rule="evenodd" clip-rule="evenodd" fill="#ECF0F1" d="M32,35H2c-1.104,0-2-0.896-2-2V3c0-1.104,0.896-2,2-2h20l12,12v20
	C34,34.104,33.104,35,32,35z"/>
<path fill-rule="evenodd" clip-rule="evenodd" fill="#9B59D3" d="M22,1l12,12H22V1z"/>
<path fill-rule="evenodd" clip-rule="evenodd" fill="#D5D8D9" d="M34,25L22,13h12V25z"/>
<g>
	<path fill-rule="evenodd" clip-rule="evenodd" fill="#FD5E01" d="M15,23l1,5c0,0.553-0.447,1-1,1h-2c-0.553,0-1-0.447-1-1l-1-5
		c-0.313,0-0.5,0-0.5,0C9.119,23,8,21.881,8,20.5v-1c0-1.381,1.119-2.5,2.5-2.5c0,0,3.525,0,6.5,0v6C16.346,23,15.665,23,15,23z"/>
	<path fill-rule="evenodd" clip-rule="evenodd" fill="#FE9B0E" d="M9,19.5c0-1.381,1.119-2.5,2.5-2.5c0,0,2.525,0,5.5,0v4H9
		C9.029,21.147,9,19.5,9,19.5z"/>
	<path fill-rule="evenodd" clip-rule="evenodd" fill="#CDD2D4" d="M22.5,27H22c0,0-2.857-4-5-4v-6c2.134,0,5-3,5-3h0.5
		c0.275,0,0.5,0.225,0.5,0.5v12C23,26.776,22.775,27,22.5,27z"/>
	<path fill-rule="evenodd" clip-rule="evenodd" fill="#ECF2F4" d="M17,19v-1c2.134-0.609,4-3,4-3h0.5c0.275,0,0.5,0.225,0.5,0.5V18
		L17,19z"/>
	<path fill-rule="evenodd" clip-rule="evenodd" fill="#B5BDC0" d="M17,22v1c2.134,0.609,5,4,5,4h0.5c0.275,0,0.5-0.224,0.5-0.5V23
		L17,22z"/>
	<rect x="23" y="18" fill-rule="evenodd" clip-rule="evenodd" fill="#95A0A4" width="1" height="4"/>
</g>
</svg>
