<?xml version="1.0" encoding="utf-8"?>
<!-- Generator: Adobe Illustrator 16.0.0, SVG Export Plug-In . SVG Version: 6.00 Build 0)  -->
<!DOCTYPE svg PUBLIC "-//W3C//DTD SVG 1.1//EN" "http://www.w3.org/Graphics/SVG/1.1/DTD/svg11.dtd">
<svg version="1.1" id="forum_x5F_link" xmlns="http://www.w3.org/2000/svg" xmlns:xlink="http://www.w3.org/1999/xlink"
	 x="0px" y="0px" width="38px" height="38px" viewBox="0 0 38 38" enable-background="new 0 0 38 38" xml:space="preserve">
<path fill-rule="evenodd" clip-rule="evenodd" fill="#DEE0E0" d="M32,35H2c-1.104,0-2-0.896-2-2V2c0-1.104,0.896-2,2-2h20l12,12v21
	C34,34.104,33.104,35,32,35z"/>
<path fill-rule="evenodd" clip-rule="evenodd" fill="#ECF0F1" d="M32,34H2c-1.104,0-2-0.896-2-2V2c0-1.104,0.896-2,2-2h20l12,12v20
	C34,33.104,33.104,34,32,34z"/>
<path fill-rule="evenodd" clip-rule="evenodd" fill="#9B59D3" d="M22,0l12,12H22V0z"/>
<path fill-rule="evenodd" clip-rule="evenodd" fill="#D5D8D9" d="M34,24L22,12h12V24z"/>
<g>
	<path fill-rule="evenodd" clip-rule="evenodd" fill="#DB5100" d="M19.625,25.8L12,18l-1,8l4.5,4L19.625,25.8z"/>
	<path fill-rule="evenodd" clip-rule="evenodd" fill="#F39B1D" d="M18.118,19.118L11,26.4V18l2.958-3.042L11,12h10v10L18.118,19.118
		z"/>
	<path fill-rule="evenodd" clip-rule="evenodd" fill="#FAC233" d="M21,12L21,12L11,22v-4l2.958-3.042L11,12H21z"/>
</g>
</svg>
