<?xml version="1.0" encoding="utf-8"?>
<!-- Generator: Adobe Illustrator 16.0.0, SVG Export Plug-In . SVG Version: 6.00 Build 0)  -->
<!DOCTYPE svg PUBLIC "-//W3C//DTD SVG 1.1//EN" "http://www.w3.org/Graphics/SVG/1.1/DTD/svg11.dtd">
<svg version="1.1" id="forum_x5F_read_x5F_locked"
	 xmlns="http://www.w3.org/2000/svg" xmlns:xlink="http://www.w3.org/1999/xlink" x="0px" y="0px" width="38px" height="38px"
	 viewBox="0 0 38 38" enable-background="new 0 0 38 38" xml:space="preserve">
<path fill-rule="evenodd" clip-rule="evenodd" fill="#DEE0E0" d="M32,36H2c-1.104,0-2-0.896-2-2V3c0-1.104,0.896-2,2-2h20l12,12v21
	C34,35.104,33.104,36,32,36z"/>
<path fill-rule="evenodd" clip-rule="evenodd" fill="#ECF0F1" d="M32,35H2c-1.104,0-2-0.896-2-2V3c0-1.104,0.896-2,2-2h20l12,12v20
	C34,34.104,33.104,35,32,35z"/>
<path fill-rule="evenodd" clip-rule="evenodd" fill="#9B59D3" d="M22,1l12,12H22V1z"/>
<path fill-rule="evenodd" clip-rule="evenodd" fill="#D5D8D9" d="M34,25L22,13h12V25z"/>
<g>
	<path fill-rule="evenodd" clip-rule="evenodd" fill="#FE9B0E" d="M11,18h12c1.104,0,2,0.896,2,2v8c0,1.104-0.896,2-2,2H11
		c-1.104,0-2-0.896-2-2v-8C9,18.896,9.896,18,11,18z"/>
	<path fill-rule="evenodd" clip-rule="evenodd" fill="#FFBA15" d="M11,18h1v12h-1c-1.104,0-2-0.896-2-2v-8C9,18.896,9.896,18,11,18z
		"/>
	<path fill-rule="evenodd" clip-rule="evenodd" fill="#FD5E01" d="M25,20v8c0,1.104-0.896,2-2,2h-1V18h1C24.104,18,25,18.896,25,20z
		"/>
	<path fill-rule="evenodd" clip-rule="evenodd" fill="#C24600" d="M18,24.723V26.5c0,0.276-0.225,0.5-0.5,0.5h-1
		c-0.275,0-0.5-0.224-0.5-0.5v-1.777c-0.596-0.347-1-0.984-1-1.723c0-1.104,0.896-2,2-2s2,0.896,2,2
		C19,23.738,18.596,24.376,18,24.723z"/>
	<path fill-rule="evenodd" clip-rule="evenodd" fill="#FD5E01" d="M9.277,29c0.347,0.596,0.984,1,1.723,1h12
		c0.738,0,1.376-0.404,1.723-1H9.277z"/>
	<path fill-rule="evenodd" clip-rule="evenodd" fill="#B4BCBF" d="M19,18v-2.5c0-0.828-0.672-1.5-1.5-1.5h-1
		c-0.828,0-1.5,0.672-1.5,1.5V18h-3v-2.5c0-2.485,2.015-4.5,4.5-4.5h1c2.485,0,4.5,2.015,4.5,4.5V18H19z"/>
	<path fill-rule="evenodd" clip-rule="evenodd" fill="#EAEAEA" d="M13,18v-2.5c0-1.934,1.566-3.5,3.5-3.5h1
		c0.179,0,0.35,0.027,0.521,0.053C15.212,12.321,13,14.865,13,18z"/>
</g>
<path fill-rule="evenodd" clip-rule="evenodd" fill="#FD5E01" d="M3,0h6v14l-3-2l-3,2V0z"/>
</svg>
