<?xml version="1.0" encoding="utf-8"?>
<!-- Generator: Adobe Illustrator 16.0.0, SVG Export Plug-In . SVG Version: 6.00 Build 0)  -->
<!DOCTYPE svg PUBLIC "-//W3C//DTD SVG 1.1//EN" "http://www.w3.org/Graphics/SVG/1.1/DTD/svg11.dtd">
<svg version="1.1" id="sticky_x5F_unread_x5F_mine" xmlns="http://www.w3.org/2000/svg" xmlns:xlink="http://www.w3.org/1999/xlink"
	 x="0px" y="0px" width="38px" height="38px" viewBox="0 0 38 38" enable-background="new 0 0 38 38" xml:space="preserve">
<path fill-rule="evenodd" clip-rule="evenodd" fill="#691FA9" d="M32,36H2c-1.104,0-2-0.896-2-2V3c0-1.104,0.896-2,2-2h19l13,13v20
	C34,35.104,33.104,36,32,36z"/>
<path fill-rule="evenodd" clip-rule="evenodd" fill="#9B59D3" d="M32,35H2c-1.104,0-2-0.896-2-2V3c0-1.104,0.896-2,2-2h19l13,13v19
	C34,34.104,33.104,35,32,35z"/>
<path fill-rule="evenodd" clip-rule="evenodd" fill="#E1E4E6" d="M22,1l12,12H22V1z"/>
<path opacity="0.7" fill-rule="evenodd" clip-rule="evenodd" fill="#FFFFFF" d="M20,11c0,0.553-0.447,1-1,1H9c-0.553,0-1-0.447-1-1
	v-1c0-0.553,0.447-1,1-1h10c0.553,0,1,0.447,1,1V11z"/>
<path opacity="0.7" fill-rule="evenodd" clip-rule="evenodd" fill="#FFFFFF" d="M26,17c0,0.553-0.447,1-1,1H9c-0.553,0-1-0.447-1-1
	v-1c0-0.553,0.447-1,1-1h16c0.553,0,1,0.447,1,1V17z"/>
<path opacity="0.7" fill-rule="evenodd" clip-rule="evenodd" fill="#FFFFFF" d="M26,23c0,0.553-0.447,1-1,1H9c-0.553,0-1-0.447-1-1
	v-1c0-0.553,0.447-1,1-1h16c0.553,0,1,0.447,1,1V23z"/>
<path opacity="0.7" fill-rule="evenodd" clip-rule="evenodd" fill="#FFFFFF" d="M26,29c0,0.553-0.447,1-1,1H9c-0.553,0-1-0.447-1-1
	v-1c0-0.553,0.447-1,1-1h16c0.553,0,1,0.447,1,1V29z"/>
<path opacity="0.25" fill-rule="evenodd" clip-rule="evenodd" d="M34,25L22,13h12V25z"/>
<path fill-rule="evenodd" clip-rule="evenodd" fill="#FD5E01" d="M3,0h6v14l-3-2l-3,2V0z"/>
<g>
	<path fill-rule="evenodd" clip-rule="evenodd" fill="#FD5E01" d="M32.5,21c3.037,0,5.5,2.463,5.5,5.5S35.537,32,32.5,32
		S27,29.537,27,26.5S29.463,21,32.5,21z"/>
	<path fill-rule="evenodd" clip-rule="evenodd" fill="#FFFFFF" d="M36,25l-4.223,5.002L29,27l1-1l1.701,1.651L35,24L36,25z"/>
</g>
</svg>
