<?xml version="1.0" encoding="utf-8"?>
<!-- Generator: Adobe Illustrator 16.0.0, SVG Export Plug-In . SVG Version: 6.00 Build 0)  -->
<!DOCTYPE svg PUBLIC "-//W3C//DTD SVG 1.1//EN" "http://www.w3.org/Graphics/SVG/1.1/DTD/svg11.dtd">
<svg version="1.1" id="topic_x5F_unread_x5F_locked_x5F_mine" xmlns="http://www.w3.org/2000/svg" xmlns:xlink="http://www.w3.org/1999/xlink"
	 x="0px" y="0px" width="38px" height="38px" viewBox="0 0 38 38" enable-background="new 0 0 38 38" xml:space="preserve">
<path fill-rule="evenodd" clip-rule="evenodd" fill="#691FA9" d="M32,35H2c-1.104,0-2-0.896-2-2V2c0-1.104,0.896-2,2-2h19l13,13v20
	C34,34.104,33.104,35,32,35z"/>
<path fill-rule="evenodd" clip-rule="evenodd" fill="#9B59D3" d="M32,34H2c-1.104,0-2-0.896-2-2V2c0-1.104,0.896-2,2-2h19l13,13v19
	C34,33.104,33.104,34,32,34z"/>
<path fill-rule="evenodd" clip-rule="evenodd" fill="#E1E4E6" d="M22,0l12,12H22V0z"/>
<path opacity="0.25" fill-rule="evenodd" clip-rule="evenodd" d="M34,24L22,12h12V24z"/>
<g>
	<path fill-rule="evenodd" clip-rule="evenodd" fill="#FE9B0E" d="M11,17h12c1.104,0,2,0.896,2,2v8c0,1.104-0.896,2-2,2H11
		c-1.104,0-2-0.896-2-2v-8C9,17.896,9.896,17,11,17z"/>
	<path fill-rule="evenodd" clip-rule="evenodd" fill="#FFBA15" d="M11,17h1v12h-1c-1.104,0-2-0.896-2-2v-8C9,17.896,9.896,17,11,17z
		"/>
	<path fill-rule="evenodd" clip-rule="evenodd" fill="#FD5E01" d="M25,19v8c0,1.104-0.896,2-2,2h-1V17h1C24.104,17,25,17.896,25,19z
		"/>
	<path fill-rule="evenodd" clip-rule="evenodd" fill="#C24600" d="M18,23.723V25.5c0,0.276-0.225,0.5-0.5,0.5h-1
		c-0.275,0-0.5-0.224-0.5-0.5v-1.777c-0.596-0.347-1-0.984-1-1.723c0-1.104,0.896-2,2-2s2,0.896,2,2
		C19,22.738,18.596,23.376,18,23.723z"/>
	<path fill-rule="evenodd" clip-rule="evenodd" fill="#FD5E01" d="M9.277,28c0.347,0.596,0.984,1,1.723,1h12
		c0.738,0,1.376-0.404,1.723-1H9.277z"/>
	<path fill-rule="evenodd" clip-rule="evenodd" fill="#B4BCBF" d="M19,17v-2.5c0-0.828-0.672-1.5-1.5-1.5h-1
		c-0.828,0-1.5,0.672-1.5,1.5V17h-3v-2.5c0-2.485,2.015-4.5,4.5-4.5h1c2.485,0,4.5,2.015,4.5,4.5V17H19z"/>
	<path fill-rule="evenodd" clip-rule="evenodd" fill="#EAEAEA" d="M13,17v-2.5c0-1.934,1.566-3.5,3.5-3.5h1
		c0.179,0,0.35,0.027,0.521,0.053C15.212,11.321,13,13.865,13,17z"/>
</g>
<g>
	<path fill-rule="evenodd" clip-rule="evenodd" fill="#FD5E01" d="M32.5,20c3.037,0,5.5,2.463,5.5,5.5S35.537,31,32.5,31
		S27,28.537,27,25.5S29.463,20,32.5,20z"/>
	<path fill-rule="evenodd" clip-rule="evenodd" fill="#FFFFFF" d="M36,24l-4.223,5.002L29,26l1-1l1.701,1.651L35,23L36,24z"/>
</g>
</svg>
